<svg xmlns="http://www.w3.org/2000/svg" xmlns:xlink="http://www.w3.org/1999/xlink" id="Layer_1" width="100" height="1769.2" x="0" y="0" enable-background="new -247 -464.3 100 1769.2" version="1.1" viewBox="-247 -464.3 100 1769.2" xml:space="preserve"><style type="text/css">.st0{fill:#777}.st1{fill:#2ba6de}.st2{fill:#d90007}.st3{fill:#31b500}.st4{opacity:.3}.st5{fill:#191717}.st6{fill:#fff}.st7{fill:#777}.st7,.st8{opacity:.5;enable-background:new}.st8,.st9{fill:#2ea0da}.st10{opacity:.5;enable-background:new}.st10,.st11,.st12{fill:#151515}.st12,.st13{opacity:.3;enable-background:new}.st13{fill:#020202}.st14{opacity:.5}.st15{opacity:.4;enable-background:new}.st16,.st17{opacity:.5}.st16,.st17,.st18,.st19{enable-background:new}.st17,.st18{fill:#111}.st18{opacity:.4}.st19{opacity:.5;fill:none;stroke:#000;stroke-width:2;stroke-miterlimit:10}.st20{fill:orange}.st21{fill:#999}.st22{fill:#aaa}.st23{fill:#ecc01e}.st24{fill:#f1d364}.st25{fill:#ebc01e}.st26{fill:#9f9f9f}.st27{fill:#030303}.st28{fill:#59ad46}</style><path id="Shape_2_" d="M-190.5-74c0-4.4-3.6-8-8-8s-8,3.6-8,8s3.6,8,8,8	S-190.5-69.6-190.5-74L-190.5-74L-190.5-74z M-196.5-79v4h3l-5,6l-5-6h3v-4H-196.5L-196.5-79z" class="st0"/><g id="Group_1_" transform="translate(31.000000, 462.000000)"><path id="Shape_3_" d="M-228-455v-2h-8v-3l-4,4l4,4v-3H-228L-228-455z" class="st0"/><path id="Shape_4_" d="M-228-463c-3.2,0-5.9,2.1-6.7,5h2.1c0.8-1.8,2.5-3,4.6-3c2.8,0,5,2.2,5,5s-2.2,5-5,5 c-2,0-3.8-1.2-4.6-3h-2.1c0.9,2.9,3.5,5,6.7,5c3.9,0,7-3.1,7-7S-224.1-463-228-463L-228-463L-228-463z" class="st0"/></g><g id="Group_2_" transform="translate(35.000000, 420.000000)"><path id="Shape_5_" d="M-240.5-447h12v-7c-2.8,0-5-2.2-5-5c0-0.7,0.1-1.4,0.4-2h-4.4l-3,3V-447L-240.5-447z" class="st0"/><path id="Shape_6_" d="M-232.5-459c0,2.2,1.8,4,4,4s4-1.8,4-4s-1.8-4-4-4S-232.5-461.3-232.5-459L-232.5-459 L-232.5-459z M-230.5-460h2v-2l3,3l-3,3v-2h-2V-460L-230.5-460z" class="st0"/></g><path id="Shape_46_" d="M-190.5,966c0-4.4-3.6-8-8-8s-8,3.6-8,8s3.6,8,8,8	S-190.5,970.4-190.5,966L-190.5,966L-190.5,966z M-196.5,961v4h3l-5,6l-5-6h3v-4H-196.5L-196.5,961z" class="st1"/><g id="Group_14_" transform="translate(31.000000, 462.000000)"><path id="Shape_45_" d="M-228,564.9v-2h-8v-3l-4,4l4,4v-3H-228L-228,564.9z" class="st2"/><path id="Shape_44_" d="M-228,556.9c-3.2,0-5.9,2.1-6.7,5h2.1c0.8-1.8,2.5-3,4.6-3c2.8,0,5,2.2,5,5s-2.2,5-5,5 c-2,0-3.8-1.2-4.6-3h-2.1c0.9,2.9,3.5,5,6.7,5c3.9,0,7-3.1,7-7S-224.1,556.9-228,556.9L-228,556.9L-228,556.9z" class="st2"/></g><g id="Group_13_" transform="translate(35.000000, 420.000000)"><path id="Shape_43_" d="M-240.5,582.9h12v-7c-2.8,0-5-2.2-5-5c0-0.7,0.1-1.4,0.4-2h-4.4l-3,3V582.9L-240.5,582.9z" class="st3"/><path id="Shape_42_" d="M-232.5,570.9c0,2.2,1.8,4,4,4s4-1.8,4-4s-1.8-4-4-4S-232.5,568.7-232.5,570.9L-232.5,570.9 L-232.5,570.9z M-230.5,569.9h2v-2l3,3l-3,3v-2h-2V569.9L-230.5,569.9z" class="st3"/></g><g id="Group_4_" class="st4" transform="translate(40.000000, 347.000000)"><path id="Shape_9_" d="M-240.5-461c0-1.1,0.9-2,2-2s2,0.9,2,2s-0.9,2-2,2S-240.5-460-240.5-461L-240.5-461L-240.5-461z" class="st5"/></g><path id="Shape_23_" d="M-238.5,572.4c0,4.4,3.6,8,8,8s8-3.6,8-8s-3.6-8-8-8	S-238.5,568-238.5,572.4L-238.5,572.4L-238.5,572.4z M-231.5,567.4h2v4h4v2h-4v4h-2v-4h-4v-2h4V567.4L-231.5,567.4z" class="st6"/><g id="Group_8_" transform="translate(4.000000, 716.000000)"><path id="Shape_24_" d="M-220.6-448.3c-0.5-0.1-0.8-0.5-0.8-0.9c0-0.1,0.1-0.2,0.1-0.2c1-0.6,1.8-1.5,1.8-2.6 c0.1-2.3-2.1-4.1-4.3-4.7c0.1,1.7-0.4,3.3-1.4,4.6c-0.9,1.1-2.2,1.9-3.7,2.4c0.8,0.7,1.9,1.2,3.1,1.2c0.7,0.1,1.5,0,2.2-0.1 c0.8,0.6,2,0.7,2.9,0.6C-220.3-448.1-220.4-448.2-220.6-448.3L-220.6-448.3L-220.6-448.3z" class="st7"/><path id="Shape_25_" d="M-225.4-457.9c-0.8-3.6-4.4-4.7-7.8-4c-3.2,0.7-6.4,3.1-6.3,6.4c0,1.5,1,2.7,2.4,3.5 c0.1,0.1,0.2,0.2,0.2,0.3c0,0.6-0.5,1.1-1.1,1.2c-0.3,0.1-0.4,0.2,0,0.3c1.3,0.1,2.8,0,3.9-0.8c1,0.1,2,0.2,2.9,0.1 C-227.2-451-224.5-454-225.4-457.9L-225.4-457.9L-225.4-457.9z" class="st0"/></g><path id="Shape_26_" d="M-236.5,390.9c0,4.4,3.6,8,8,8s8-3.6,8-8s-3.6-8-8-8	S-236.5,386.5-236.5,390.9L-236.5,390.9L-236.5,390.9z M-230.5,395.9v-4h-3l5-6l5,6h-3v4H-230.5L-230.5,395.9z" class="st0"/><path id="Shape_28_" d="M-219.5,290.9c0-4.4-3.6-8-8-8s-8,3.6-8,8s3.6,8,8,8	S-219.5,295.4-219.5,290.9L-219.5,290.9L-219.5,290.9z M-232.5,290.9l2-2l2,2l4-4l2,2l-6,6L-232.5,290.9L-232.5,290.9z" class="st0"/><path id="Shape_22_" d="M-219.5,320.9c0-4.4-3.6-8-8-8s-8,3.6-8,8s3.6,8,8,8	S-219.5,325.4-219.5,320.9L-219.5,320.9L-219.5,320.9z M-232.5,320.9l2-2l2,2l4-4l2,2l-6,6L-232.5,320.9L-232.5,320.9z" class="st3"/><g id="Group_9_" transform="translate(1.000000, 1069.000000)"><path id="Shape_29_" d="M-222.5-449.8c-0.4-0.1-0.7-0.4-0.7-0.9c0-0.1,0.1-0.2,0.1-0.2c0.9-0.5,1.6-1.4,1.6-2.4 c0-2.2-1.9-3.8-3.9-4.4c0.1,1.6-0.4,3.1-1.3,4.2c-0.8,1.1-2,1.8-3.3,2.2c0.7,0.7,1.7,1.1,2.8,1.2c0.6,0,1.3,0,2-0.1 c0.7,0.6,1.8,0.6,2.6,0.6C-222.3-449.6-222.3-449.7-222.5-449.8L-222.5-449.8L-222.5-449.8z" class="st8"/><path id="Shape_30_" d="M-226.8-458.6c-0.7-3.3-3.9-4.4-7.1-3.7c-2.9,0.6-5.7,2.9-5.6,6c0,1.4,0.9,2.5,2.1,3.2 c0.1,0.1,0.2,0.2,0.2,0.3c0,0.6-0.4,1-1,1.1c-0.3,0.1-0.3,0.2,0,0.3c1.2,0.1,2.5,0,3.5-0.7c0.9,0.1,1.8,0.2,2.6,0.1 C-228.4-452.3-226-455-226.8-458.6L-226.8-458.6L-226.8-458.6z" class="st9"/></g><g id="Group_10_" class="st4" transform="translate(1.000000, 1153.000000)"><path id="Shape_31_" d="M-222.5-449.8c-0.4-0.1-0.7-0.4-0.7-0.9c0-0.1,0.1-0.2,0.1-0.2c0.9-0.5,1.6-1.4,1.6-2.4 c0-2.2-1.9-3.8-3.9-4.4c0.1,1.6-0.4,3.1-1.3,4.2c-0.8,1.1-2,1.8-3.3,2.2c0.7,0.7,1.7,1.1,2.8,1.2c0.6,0,1.3,0,2-0.1 c0.7,0.6,1.8,0.6,2.6,0.6C-222.3-449.6-222.3-449.7-222.5-449.8L-222.5-449.8L-222.5-449.8z" class="st10"/><path id="Shape_32_" d="M-226.8-458.6c-0.7-3.3-3.9-4.4-7.1-3.7c-2.9,0.6-5.7,2.9-5.6,6c0,1.4,0.9,2.5,2.1,3.2 c0.1,0.1,0.2,0.2,0.2,0.3c0,0.6-0.4,1-1,1.1c-0.3,0.1-0.3,0.2,0,0.3c1.2,0.1,2.5,0,3.5-0.7c0.9,0.1,1.8,0.2,2.6,0.1 C-228.4-452.3-226-455-226.8-458.6L-226.8-458.6L-226.8-458.6z" class="st11"/></g><path id="Shape_33_" d="M-238.5,642c0,1.9,1.5,3.5,3.3,3.5h0.1h9.3c1.8,0,3.3-1.6,3.3-3.5	s-1.4-3.4-3.1-3.5l0,0c0-2.2-1.7-4.1-3.8-4.1c-1.4,0-2.6,0.8-3.2,1.9c-0.2-0.1-0.5-0.2-0.8-0.2c-1,0-1.9,0.9-1.9,2	c0,0.1,0,0.2,0,0.3C-237.1,638.6-238.5,640.1-238.5,642L-238.5,642L-238.5,642z" class="st12"/><path id="Shape_34_" d="M-238.5,670c0,1.9,1.5,3.5,3.3,3.5h0.1h9.3c1.8,0,3.3-1.6,3.3-3.5	s-1.4-3.4-3.1-3.5l0,0c0-2.2-1.7-4.1-3.8-4.1c-1.4,0-2.6,0.8-3.2,1.9c-0.2-0.1-0.5-0.2-0.8-0.2c-1,0-1.9,0.9-1.9,2	c0,0.1,0,0.2,0,0.3C-237.1,666.6-238.5,668.1-238.5,670L-238.5,670L-238.5,670z" class="st12"/><path id="Shape_35_" d="M-234.5,722h8c1.1,0,2,0.9,2,2s-0.9,2-2,2h-8c-1.1,0-2-0.9-2-2	S-235.6,722-234.5,722L-234.5,722L-234.5,722z" class="st13"/><path id="Shape_36_" d="M-229.8,356.9c0,1.1-0.9,2-2,2s-2-0.9-2-2s0.9-2,2-2	S-229.8,355.9-229.8,356.9L-229.8,356.9L-229.8,356.9z" class="st0"/><path id="Shape_37_" d="M-233.4,352.9c-0.1-0.5-0.1-1,0-1.4s0.3-0.8,0.6-1.1	c0.2-0.3,0.5-0.6,0.8-0.9s0.6-0.5,0.9-0.8c0.3-0.2,0.5-0.5,0.7-0.8c0.2-0.2,0.3-0.5,0.3-0.8c0-0.5-0.2-0.9-0.5-1.1s-0.8-0.4-1.2-0.4	c-0.5,0-0.9,0.1-1.3,0.3s-0.7,0.5-1.1,0.8l-1.9-1.8c0.6-0.6,1.2-1.1,2-1.5s1.6-0.6,2.5-0.6c0.7,0,1.3,0.1,1.9,0.2	c0.6,0.2,1.1,0.4,1.5,0.7s0.8,0.7,1,1.2c0.3,0.5,0.4,1,0.4,1.7c0,0.5-0.1,1-0.3,1.3c-0.2,0.4-0.4,0.7-0.7,1s-0.6,0.6-0.9,0.9	c-0.3,0.3-0.6,0.5-0.9,0.8s-0.5,0.6-0.6,0.9c-0.2,0.3-0.2,0.7-0.2,1.2L-233.4,352.9L-233.4,352.9z" class="st0"/><g id="Imported-Layers-13_3_" class="st14" transform="translate(3.000000, 978.000000)"><path id="Fill-2_13_" d="M-226.3-450.8c-0.4-0.4-3.6-1.9-4.2-2.1c0-0.1-0.1-0.6-0.2-0.7c-0.2-0.1-0.7-0.3-0.7-0.3s-0.1-0.1-0.1-0.3 c0-0.1,0.1-0.3,0.1-0.3c0.1-0.1,0.3-0.5,0.4-0.7c0.1-0.3,0.2-0.9,0.2-0.9c0-0.1,0.2-0.2,0.3-0.3c0.2-0.1,0.4-1.5,0.4-1.5 c0-0.5-0.2-0.3-0.2-0.6v-1.2c0-1.5-1.2-2.5-2.7-2.5h-0.1c-1.5,0-2.7,1-2.7,2.5v1.2c0,0.3-0.2,0.1-0.2,0.6c0,0,0.2,1.4,0.4,1.5 c0.1,0.1,0.3,0.1,0.3,0.3c0,0,0.1,0.7,0.1,0.9c0.1,0.3,0.3,0.6,0.4,0.7c0,0,0.1,0.1,0.1,0.3c0,0.1-0.1,0.2-0.1,0.3 c0,0-0.5,0.3-0.7,0.3c-0.2,0.1-0.2,0.5-0.2,0.7c-0.6,0.2-3.8,1.7-4.2,2.1c-0.3,0.3-0.3,1.9-0.3,1.9v0.2c0,0.4,0.3,0.7,0.7,0.7h12.7 c0.4,0,0.7-0.3,0.7-0.7v-0.2C-226-448.9-226-450.5-226.3-450.8"/></g><g id="Imported-Layers-13_2_" transform="translate(3.000000, 938.000000)"><path id="Fill-1_10_" d="M-228.5-453.1c1.2,0.5,2.6,1.2,2.9,1.6c0.2,0.2,0.5,0.6,0.5,2.4h3.5c0.3,0,0.5-0.2,0.5-0.5 v-0.2c0,0,0-1.2-0.2-1.4c-0.3-0.3-2.8-1.4-3.3-1.6c0-0.1-0.1-0.5-0.2-0.5c-0.1-0.1-0.5-0.2-0.5-0.2s0-0.1-0.1-0.2 c0-0.1,0.1-0.2,0.1-0.2c0.1-0.1,0.3-0.4,0.3-0.6c0.1-0.2,0.1-0.7,0.1-0.7c0-0.1,0.2-0.2,0.3-0.2c0.2-0.1,0.3-1.2,0.3-1.2 c0-0.4-0.1-0.2-0.1-0.5v-1c0-1.2-1-1.9-2.2-1.9l0,0c-1.2,0-2.2,0.8-2.2,1.9v1c0,0.3-0.1,0.1-0.1,0.5c0,0,0.1,1.1,0.3,1.2 c0.1,0.1,0.3,0.1,0.3,0.2c0,0,0.1,0.5,0.1,0.7c0.1,0.2,0.3,0.5,0.3,0.6c0,0,0.1,0.1,0.1,0.2s-0.1,0.2-0.1,0.2s-0.4,0.2-0.5,0.2 C-228.4-453.3-228.5-453.2-228.5-453.1L-228.5-453.1L-228.5-453.1z" class="st15"/><path id="Fill-2_12_" d="M-226.3-450.8c-0.4-0.4-3.6-1.9-4.2-2.1c0-0.1-0.1-0.6-0.2-0.7c-0.2-0.1-0.7-0.3-0.7-0.3 s-0.1-0.1-0.1-0.3c0-0.1,0.1-0.3,0.1-0.3c0.1-0.1,0.3-0.5,0.4-0.7c0.1-0.3,0.2-0.9,0.2-0.9c0-0.1,0.2-0.2,0.3-0.3 c0.2-0.1,0.4-1.5,0.4-1.5c0-0.5-0.2-0.3-0.2-0.6v-1.2c0-1.5-1.2-2.5-2.7-2.5h-0.1c-1.5,0-2.7,1-2.7,2.5v1.2c0,0.3-0.2,0.1-0.2,0.6 c0,0,0.2,1.4,0.4,1.5c0.1,0.1,0.3,0.1,0.3,0.3c0,0,0.1,0.7,0.1,0.9c0.1,0.3,0.3,0.6,0.4,0.7c0,0,0.1,0.1,0.1,0.3 c0,0.1-0.1,0.2-0.1,0.3c0,0-0.5,0.3-0.7,0.3c-0.2,0.1-0.2,0.5-0.2,0.7c-0.6,0.2-3.8,1.7-4.2,2.1c-0.3,0.3-0.3,1.9-0.3,1.9v0.2 c0,0.4,0.3,0.7,0.7,0.7h12.7c0.4,0,0.7-0.3,0.7-0.7v-0.2C-226-448.9-226-450.5-226.3-450.8" class="st16"/></g><g id="Page-1_4_" transform="translate(4.000000, 623.000000)"><g id="Imported-Layers-10_3_"><path id="Fill-1_8_" d="M-222.5-458v-1c0-0.6-0.5-1-1-1h-7c-0.3,0-0.7-0.1-1.3-0.8l-0.9-0.9 c-0.2-0.2-0.4-0.3-0.7-0.3h-6.1c-0.6,0-1,0.4-1,1v15l4-12L-222.5-458L-222.5-458z" class="st17"/><path id="Fill-2_9_" d="M-218.5-458l-3.8,11.3c-0.1,0.4-0.5,0.7-1,0.7h-17.2l4-12H-218.5L-218.5-458z" class="st18"/></g></g><g id="Imported-Layers-9-_x2B_-Path_1_" transform="translate(4.000000, 665.000000)"><g id="Imported-Layers-9_1_"><path id="Fill-1_1_" d="M-222.5-448.1c0,0.6-0.5,1-1,1h-16c-0.5,0-1-0.4-1-1v-11h18V-448.1" class="st15"/><path id="Fill-2_1_" d="M-239.5-463h6.1c0.3,0,0.5,0.1,0.7,0.3l0.9,0.9c0.6,0.7,1,0.8,1.3,0.8h7c0.5,0,1,0.4,1,1v1 h-18v-3C-240.5-462.6-240.1-463-239.5-463" class="st16"/></g></g><path d="M-203.5,1058c0-3.3,2.7-6,6-6s6,2.7,6,6s-2.7,6-6,6" class="st19"/><polygon points="-206.5 1058 -200.5 1058 -203.5 1062" class="st16"/><g><g id="Page-1_1_" transform="translate(4.000000, 888.000000)"><g id="Imported-Layers_2_"><path id="Shape_41_" d="M-240.5-463v2h15v-1h-7v-1H-240.5L-240.5-463z M-224.5-460h-16v9h16V-460L-224.5-460z" class="st0"/></g></g><path id="Combined-Shape_1_" d="M-223.6,432.5l-2.2,2.2l-0.4-0.4l0.9-1.3h-5.3v-1h5.3l-0.9-1.3l0.4-0.4L-223.6,432.5z M-231.6,432h-1.8v0.9h1.8V432z" class="st6"/></g><g><g id="Page-1_2_" transform="translate(4.000000, 888.000000)"><g id="Imported-Layers_1_"><path id="Shape_1_" d="M-240.5-436v2h15v-1h-7v-1H-240.5L-240.5-436z M-224.5-433h-16v9h16V-433L-224.5-433z" class="st20"/></g></g><path id="Combined-Shape_4_" d="M-223.6,459.5l-2.2,2.2l-0.4-0.4l0.9-1.3h-5.3v-1h5.3l-0.9-1.3l0.4-0.4L-223.6,459.5z M-231.6,459h-1.8v0.9h1.8V459z" class="st6"/></g><g><g id="Page-1_5_"><g id="Fill-2-_x2B_-Fill-1_1_" transform="translate(0.000000, 1.000000)"><path id="Fill-2_8_" d="M-233.5,763h27.5c1.2,0,2.2,0.6,3.1,1.4l4.1,4.1c0.8,0.8,2.6,1.6,3.8,1.6h35 c2.5,0,4,1.8,4,4.2v1.8h-82v-8.5C-238,765-236,763-233.5,763" class="st21"/><path id="Fill-1_5_" d="M-156,830.5c0,2.5-2,4.5-4.5,4.5h-73c-2.5,0-4.5-2-4.5-4.5V776h82V830.5" class="st22"/></g></g></g><g><g id="Page-1_7_"><g id="Fill-2-_x2B_-Fill-1_4_" transform="translate(0.000000, 1.000000)"><path id="Fill-2_3_" d="M-233.5,1093h27.5c1.2,0,2.2,0.6,3.1,1.4l4.1,4.1c0.8,0.8,2.6,1.6,3.8,1.6h35 c2.5,0,4,1.8,4,4.2v1.8h-82v-8.5C-238,1095-236,1093-233.5,1093" class="st23"/><path id="Fill-1_3_" d="M-156,1160.5c0,2.5-2,4.5-4.5,4.5h-73c-2.5,0-4.5-2-4.5-4.5V1106h82V1160.5" class="st24"/></g></g></g><g><path id="Fill-1-Copy" d="M-156-393.8c0,2.5-2,4.5-4.5,4.5h-73c-2.5,0-4.5-2-4.5-4.5v-54.5h82V-393.8" class="st24"/><path d="M-217.5-423.3c-2.5,0-4.5,2-4.5,4.5s2,4.5,4.5,4.5s4.5-2,4.5-4.5S-215-423.3-217.5-423.3z M-217.5-417.3 c-0.8,0-1.5-0.7-1.5-1.5s0.7-1.5,1.5-1.5s1.5,0.7,1.5,1.5S-216.7-417.3-217.5-417.3z" class="st6"/><path id="Fill-2_4_" d="M-210-418.8l9.3,9.8c0.4,0.4,1.1,0.5,1.6,0.3l0.2-0.1c0.5-0.2,0.6-0.8,0.3-1.2l-5.4-7.2h31 c0.5,0,1-0.4,1-1v-1c0-0.6-0.5-1-1-1h-31l5.4-7.2c0.3-0.4,0.2-1-0.3-1.2l-0.2-0.1c-0.5-0.2-1.2-0.1-1.6,0.3L-210-418.8z" class="st6"/><path id="Fill-2-Copy" d="M-233.5-461.3h27.5c1.2,0,2.2,0.6,3.1,1.4l4.1,4.1c0.8,0.8,2.6,1.6,3.8,1.6h35 c2.5,0,4,1.8,4,4.2v1.8h-82v-8.5C-238-459.3-236-461.3-233.5-461.3" class="st25"/></g><g><path id="Fill-1_4_" d="M-183.5-300.3h-32c-1.1,0-2-0.9-2-2v-23h36v23C-181.5-301.2-182.4-300.3-183.5-300.3z" class="st24"/><polygon id="Combined-Shape_3_" points="-203.5 -313.3 -198.5 -308.3 -197.5 -309.3 -199.5 -312.3 -187.5 -312.3 -187.5 -314.3 -199.5 -314.3 -197.5 -317.3 -198.5 -318.3" class="st6"/><path d="M-208.5-316.3c-1.7,0-3,1.3-3,3s1.3,3,3,3s3-1.3,3-3S-206.9-316.3-208.5-316.3z M-208.5-312.3 c-0.6,0-1-0.4-1-1s0.4-1,1-1s1,0.4,1,1S-208-312.3-208.5-312.3z" class="st6"/><path id="Fill-2_7_" d="M-203.4-332.3c0.5,0,1,0.2,1.4,0.6l1.8,1.8c1.3,1.3,2.1,1.6,2.6,1.6h14c1.1,0,2,0.9,2,2v1h-36 v-5c0-1.1,0.9-2,2-2H-203.4z" class="st25"/></g><g><path id="Fill-2_11_" d="M-236,122h6.1c0.3,0,0.5,0.1,0.7,0.3l0.9,0.9c0.6,0.7,1,0.8,1.3,0.8h7c0.6,0,1,0.4,1,1v1h-18 v-3C-237,122.4-236.6,122-236,122" class="st16"/></g><path id="Combined-Shape_13_" d="M-218,56c0,0.5-0.4,1-1,1h-16c-0.6,0-1-0.5-1-1V45h18V56" class="st15"/><polygon id="Combined-Shape_6_" points="-229 50.5 -226.5 53 -226 52.5 -227 51 -221 51 -221 50 -227 50 -226 48.5 -226.5 48" class="st6"/><path d="M-231.5,49c-0.8,0-1.5,0.7-1.5,1.5s0.7,1.5,1.5,1.5s1.5-0.7,1.5-1.5S-230.7,49-231.5,49z M-231,51h-1v-1h1V51z" class="st6"/><path id="Fill-2_16_" d="M-235,41h6.1c0.3,0,0.5,0.1,0.7,0.3l0.9,0.9c0.6,0.7,1,0.8,1.3,0.8h7c0.6,0,1,0.4,1,1v1h-18	v-3C-236,41.4-235.6,41-235,41" class="st16"/><g><g><g id="Imported-Layers-11_1_" transform="translate(24.000000, 48.000000)"><path id="Fill-1_6_" d="M-259.5,33h6.1c0.3,0,0.5,0.1,0.7,0.3l0.9,0.9 c0.6,0.7,1,0.8,1.3,0.8h7c0.6,0,1,0.5,1,1v10l-18,3V34C-260.5,33.4-260,33-259.5,33" class="st16"/><path id="Fill-2_14_" d="M-238.5,37l-3.8,11.3c-0.1,0.4-0.5,0.7-0.9,0.7h-17.3l4-12 H-238.5z" class="st26"/></g></g><polygon id="Combined-Shape_8_" points="-227.5 90.5 -225.9 93 -225.2 92.5 -225.7 91 -219.7 91 -219.4 90 -225.4 90 -223.8 88.5 -224.2 88" class="st6"/><path d="M-229.5,89c-0.8,0-1.7,0.7-2,1.5s0.1,1.5,1,1.5c0.8,0,1.7-0.7,2-1.5S-228.7,89-229.5,89z M-229.7,91h-1l0.4-1 h1L-229.7,91z" class="st6"/></g><g><path id="Combined-Shape_7_" d="M-218.5-354c0,0.5-0.4,1-1,1h-16c-0.6,0-1-0.5-1-1v-11h18V-354" class="st26"/><polygon id="Combined-Shape_2_" points="-228 -362 -228.5 -361.5 -227.5 -360 -233.5 -360 -233.5 -359 -227.5 -359 -228.5 -357.5 -228 -357 -225.5 -359.5" class="st6"/><path d="M-224.5-359.5c0,0.8,0.7,1.5,1.5,1.5s1.5-0.7,1.5-1.5s-0.7-1.5-1.5-1.5S-224.5-360.3-224.5-359.5z M-223.5-360 h1v1h-1V-360z" class="st6"/><path id="Fill-2_10_" d="M-235.5-369h6.1c0.3,0,0.5,0.1,0.7,0.3l0.9,0.9c0.6,0.7,1,0.8,1.3,0.8h7c0.6,0,1,0.4,1,1v1 h-18v-3C-236.5-368.6-236.1-369-235.5-369" class="st16"/></g><g id="Group_6_" class="st4" transform="translate(32.000000, 292.000000)"><path id="Shape_17_" d="M-238.5-453l-2,5l5-2L-238.5-453L-238.5-453z" class="st27"/><rect id="Rectangle-path" width="4.2" height="11.3" x="-234.1" y="-462.2" class="st27" transform="matrix(-0.7072 -0.707 0.707 -0.7072 -73.3196 -943.4791)"/><path id="Shape_18_" d="M-233.5-449l9,1h-12L-233.5-449L-233.5-449z" class="st27"/></g><g id="Group_7_" class="st4" transform="translate(32.000000, 246.000000)"><path id="Shape_19_" d="M-230.5-453c-2.2,0-4-1.8-4-4s1.8-4,4-4s4,1.8,4,4S-228.3-453-230.5-453L-230.5-453 L-230.5-453z M-230.5-463c-5,0-8.2,4.3-10,6c1.8,1.7,5,6,10,6s8.2-4.3,10-6C-222.3-458.8-225.5-463-230.5-463L-230.5-463 L-230.5-463z" class="st27"/><path id="Shape_20_" d="M-228.5-457c0,1.1-0.9,2-2,2s-2-0.9-2-2s0.9-2,2-2S-228.5-458.2-228.5-457L-228.5-457 L-228.5-457z" class="st27"/></g><path id="Shape_21_" d="M-206.5-258.6l3-3l3,3l7-7l3,3l-10,10L-206.5-258.6L-206.5-258.6z" class="st28"/><path id="Combined-Shape_10_" d="M-219,137c0,0.5-0.4,1-1,1h-16c-0.6,0-1-0.5-1-1v-11h18V137" class="st15"/><polygon id="Combined-Shape_9_" points="-224.5 129 -225 129.5 -224 131 -230 131 -230 132 -224 132 -225 133.5 -224.5 134 -222 131.5" class="st6"/><path d="M-232.5,130c-0.8,0-1.5,0.7-1.5,1.5s0.7,1.5,1.5,1.5s1.5-0.7,1.5-1.5S-231.7,130-232.5,130z M-232,132h-1v-1h1	V132z" class="st6"/><g><path id="Fill-1-Copy_1_" d="M-155.8,1271.5c0,2.5-2,4.5-4.5,4.5h-73c-2.5,0-4.5-2-4.5-4.5V1217h82V1271.5" class="st24"/><path d="M-217.3,1242c-2.5,0-4.5,2-4.5,4.5s2,4.5,4.5,4.5s4.5-2,4.5-4.5S-214.8,1242-217.3,1242z M-217.3,1248 c-0.8,0-1.5-0.7-1.5-1.5c0-0.8,0.7-1.5,1.5-1.5s1.5,0.7,1.5,1.5C-215.8,1247.3-216.5,1248-217.3,1248z" class="st6"/><path id="Fill-2_6_" d="M-181.1,1236.9c-0.4-0.4-1.1-0.5-1.6-0.3l-0.2,0.1c-0.5,0.2-0.6,0.8-0.3,1.2l5.4,7.2h-31 c-0.5,0-1,0.4-1,1v1c0,0.6,0.5,1,1,1h31l-5.4,7.2c-0.3,0.4-0.2,1,0.3,1.2l0.2,0.1c0.5,0.2,1.2,0.1,1.6-0.3l9.3-9.8L-181.1,1236.9z" class="st6"/><path id="Fill-2-Copy_1_" d="M-233.3,1204h27.5c1.2,0,2.2,0.6,3.1,1.4l4.1,4.1c0.8,0.8,2.6,1.6,3.8,1.6h35 c2.5,0,4,1.8,4,4.2v1.8h-82v-8.5C-237.8,1206-235.8,1204-233.3,1204" class="st25"/></g><g><path id="Fill-1-Copy_2_" d="M-156,931.5c0,2.5-2,4.5-4.5,4.5h-73c-2.5,0-4.5-2-4.5-4.5V877h82V931.5" class="st22"/><path d="M-217.5,902c-2.5,0-4.5,2-4.5,4.5s2,4.5,4.5,4.5s4.5-2,4.5-4.5S-215,902-217.5,902z M-217.5,908 c-0.8,0-1.5-0.7-1.5-1.5s0.7-1.5,1.5-1.5s1.5,0.7,1.5,1.5S-216.7,908-217.5,908z" class="st6"/><path id="Fill-2_5_" d="M-181.3,896.9c-0.4-0.4-1.1-0.5-1.6-0.3l-0.2,0.1c-0.5,0.2-0.6,0.8-0.3,1.2l5.4,7.2h-31 c-0.5,0-1,0.4-1,1v1c0,0.6,0.5,1,1,1h31l-5.4,7.2c-0.3,0.4-0.2,1,0.3,1.2l0.2,0.1c0.5,0.2,1.2,0.1,1.6-0.3l9.3-9.8L-181.3,896.9z" class="st6"/><path id="Fill-2-Copy_2_" d="M-233.5,864h27.5c1.2,0,2.2,0.6,3.1,1.4l4.1,4.1c0.8,0.8,2.6,1.6,3.8,1.6h35 c2.5,0,4,1.8,4,4.2v1.8h-82v-8.5C-238,866-236,864-233.5,864" class="st21"/></g></svg>